<svg height='100px' width='100px'  fill="rgb(75, 79, 84)" xmlns="http://www.w3.org/2000/svg" xmlns:xlink="http://www.w3.org/1999/xlink" version="1.1" x="0px" y="0px" viewBox="0 0 468 468" style="enable-background:new 0 0 468 468;" xml:space="preserve"><g><g><g><path d="M242.113,190.368c-2.508-2.515-5.79-3.859-9.199-3.859c-1.138,0-2.291,0.149-3.433,0.456     c-4.56,1.222-8.009,4.68-9.23,9.25c-0.026,0.099-0.055,0.199-0.086,0.298l-6.979,22.794l22.758-7.024     c0.105-0.032,0.211-0.063,0.316-0.091c4.57-1.22,8.026-4.68,9.247-9.255c1.212-4.548-0.048-9.237-3.371-12.544     C242.128,190.385,242.121,190.376,242.113,190.368z"></path><path d="M345.173,194.385c7.302-7.42,15.108-14.438,22.223-22.027c6.247-6.662,9.5-15.453,5.356-24.059     c-7.029,3.805-31.67,15.639-34.729,17.048C338.554,166.222,345.197,186.126,345.173,194.385z"></path><path d="M419.73,173.513c-0.529-18.071-3.596-35.445-9.135-51.825c-0.173,0.166-0.347,0.331-0.521,0.497     c-6.735,6.303-14.527,11.96-22.705,17.092c5.282,10.156,5.839,20.104,1.617,30.753c-2.586,6.522-6.868,12.3-12.058,16.998     c-7.352,6.712-34.309,34.315-38.331,38.873c-5.702,8.849-18.575,1.22-15.003-8.12c0.099-0.224,9.649-22.85,0.714-41.968     c-0.611-1.137-1.428-2.454-2.401-3.884c-12.072,4.932-24.274,9.282-36.495,12.97c-3.02,0.914-6.292,0.087-8.519-2.146     L251.3,157.109c-2.225-2.229-3.047-5.502-2.139-8.52c4.113-13.683,9.047-27.344,14.707-40.826     c-1.179-0.736-2.405-1.446-3.744-2.119c-19.285-9.21-41.733,0.578-41.956,0.678c-8.591,3.919-16.159-7.638-9.321-14.076     c2.171-2.108,32.293-31.696,39.44-39.487c7.927-9.935,21.94-16.196,34.617-15.324c5.154,0.355,10.149,1.908,14.774,4.171     c4.32-6.477,9.002-12.586,14.115-17.947c0.629-0.662,1.269-1.317,1.922-1.967c-14.339-5.317-29.411-8.627-44.971-9.865     c-49.809-3.848-102.172,13.608-140.038,46.701C95.89,87.207,76.5,125.526,74.11,166.424c-0.004,0.065-0.008,0.13-0.014,0.194     l-0.37,4.549c-0.077,18.615-6.212,45.525-14.041,61.531l-1.774,3.861C51.641,250.221,41.411,272.504,34,287.556l30.813,0.094     c4.704,0.015,8.514,3.829,8.527,8.538l0.257,88.915c0,13.295,9.621,24.092,21.447,24.092h47.181c4.724,0,8.553,3.834,8.553,8.563     V468h227.746c1.072-65.326,11.619-163.377,33.158-234.127C417.638,214.306,420.346,193.997,419.73,173.513     C419.201,155.442,420.346,193.997,419.73,173.513C419.201,155.442,420.346,193.997,419.73,173.513     C419.201,155.442,420.346,193.997,419.73,173.513C419.201,155.442,420.346,193.997,419.73,173.513z M240.841,228.692     l-38.044,11.743c-6.431,1.986-12.673-4.239-10.698-10.692l11.67-38.114c5.993-21.976,34.328-29.515,50.44-13.37     c7.711,7.682,10.637,18.557,7.827,29.095C259.232,217.867,251.315,225.832,240.841,228.692z"></path><path d="M279.884,54.495c-7.871,0.375-14.211,4.55-19.319,10.196c-6.243,6.9-13.026,13.361-19.619,19.919     c10.425-0.052,20.772,2.17,29.881,7.347c0.793-1.712,12.075-25.208,17.906-35.63C285.578,54.974,282.651,54.363,279.884,54.495     C274.07,54.772,282.651,54.363,279.884,54.495C272.013,54.87,282.651,54.363,279.884,54.495z"></path></g><path d="M433.09,32.111c1.047-11.604,1.077-22.542,0.658-31.915c-9.337-0.363-20.213-0.286-31.743,0.772L433.09,32.111z"></path></g><ellipse cx="369.168" cy="64.854" rx="10.971" ry="10.984"></ellipse><path d="M382.302,5.379c-20.958,4.459-42.196,13.342-58.128,30.098c-14.803,15.522-25.804,38.564-35.509,58.894   c-8.6,17.772-15.859,35.996-21.623,54.281l18.307,18.343c18.25-5.777,36.435-13.046,54.127-21.64   c19.174-9.274,43.021-20.807,58.885-35.652c16.902-15.975,25.848-37.068,30.315-57.862L382.302,5.379z M369.168,93.219   c-15.648,0-28.333-12.699-28.333-28.365s12.685-28.365,28.333-28.365c15.648,0,28.333,12.699,28.333,28.365   S384.816,93.219,369.168,93.219z"></path></g></svg>