<svg height='100px' width='100px'  fill="rgb(0, 175, 102)" xmlns="http://www.w3.org/2000/svg" xmlns:xlink="http://www.w3.org/1999/xlink" version="1.1" x="0px" y="0px" viewBox="0 0 67 67" enable-background="new 0 0 67 67" xml:space="preserve"><g><rect x="56.85547" y="24.14478" width="2" height="5.76465"></rect><rect x="56.85547" y="31.32056" width="2" height="2.26953"></rect><g><path d="M35.36133,1.60278c-4.71777-0.5166-9.24707,0.9209-12.75293,4.06152c-6.64636,5.95208-7.30491,16.17067-1.41504,22.91113    c2.14746,2.45605,3.74316,5.32422,4.74316,8.52539l1.9082-0.5957c-1.08301-3.46875-2.81445-6.5791-5.14551-9.24609    c-5.17196-5.91905-4.58462-14.88424,1.24316-20.10449c3.07813-2.75586,7.0625-4.02246,11.19922-3.56348    C46.43015,4.839,51.7622,18.22691,44.5625,26.95239c-2.28223,2.76758-4.00879,5.80176-5.13574,9.02637l-2.36426,0.64935V24.17309    h1.45605c1.81738,0,3.2959-1.47852,3.2959-3.29492c0-1.81738-1.47852-3.2959-3.2959-3.2959H38.3584    c-1.81738,0-3.2959,1.47852-3.2959,3.2959v1.29492h-3.125v-1.29492c0-1.81738-1.47852-3.2959-3.2959-3.2959h-0.16016    c-1.81738,0-3.2959,1.47852-3.2959,3.2959c0,1.81641,1.47852,3.29492,3.2959,3.29492h1.45605v14.4118l-3.31152,0.90948    l0.5293,1.92773c-0.10012,0.02893,2.91887-0.78768,13.83105-3.79688l0.16699-0.51074    c1.04199-3.17871,2.70898-6.16895,4.95215-8.88867C54.29447,18.29985,48.26,3.02979,35.36133,1.60278z M37.0625,20.87817    c0-0.71484,0.58105-1.2959,1.2959-1.2959h0.16016c0.71484,0,1.2959,0.58105,1.2959,1.2959    c0,0.71387-0.58105,1.29492-1.2959,1.29492H37.0625V20.87817z M28.48145,22.17309c-0.71484,0-1.2959-0.58105-1.2959-1.29492    c0-0.71484,0.58105-1.2959,1.2959-1.2959h0.16016c0.71484,0,1.2959,0.58105,1.2959,1.2959v1.29492H28.48145z M31.9375,24.17309    h3.125v13.00427l-3.125,0.85828V24.17309z"></path><rect x="27.4431" y="40.82834" transform="matrix(0.96431 -0.26478 0.26478 0.96431 -9.84919 10.58671)" width="13.8052" height="1.99908"></rect><path d="M31.08862,46.85278c0.38861,1.85107,2.03241,3.24609,3.99731,3.24609c2.24902,0,4.07813-1.83301,4.07813-4.08594v-1.37787    l2.83984-0.77838l-0.5293-1.92969c-18.17819,5.00133-3.95025,1.08379-13.31348,3.65234l0.52734,1.92969L31.08862,46.85278z     M37.16406,45.18383c-0.0321,0.10034,0.38214,2.91504-2.07813,2.91504c-1.04492,0-1.91309-0.77246-2.06348-1.77637    L37.16406,45.18383z"></path><path d="M32.84766,7.21411l0.2207-1.98828c-2.85547-0.31348-5.7168,0.59375-7.84277,2.49805    c-2.12695,1.9043-3.34668,4.63379-3.34668,7.4873h2c0-2.28613,0.97754-4.47168,2.68164-5.99805    C28.28711,7.66723,30.52441,6.95336,32.84766,7.21411z"></path><path d="M62.28809,63.50024h-3.43262v-3.92578h-2v3.92578h-1.46582V55.5979h-2v7.90234h-1.4668v-3.92578h-2v3.92578H43.2666    c0.17578-0.4043,0.27344-0.84961,0.27344-1.31738c0-1.16309-0.58887-2.20898-1.54395-2.80859    c-0.32227-1.78906-1.89746-3.15527-3.77051-3.15527c-0.16309,0-0.32422,0.00977-0.48242,0.0293    c-0.78418-1.56934-2.40137-2.60059-4.21777-2.60059c-1.81348,0-3.42969,1.03125-4.21289,2.60156    c-0.16016-0.01953-0.32227-0.03027-0.48535-0.03027c-1.87402,0-3.44824,1.36621-3.76758,3.1543    c-0.95605,0.60059-1.5459,1.64551-1.5459,2.80957c0,0.46777,0.09766,0.91309,0.27344,1.31738h-6.70996v-3.92578h-2v3.92578    h-1.46582V55.5979h-2v7.90234h-1.4668v-3.92578h-2v3.92578H4.71191v2h22.12207v-2c-0.72754,0-1.32031-0.59082-1.32031-1.31738    c0-0.55078,0.33203-1.03516,0.84668-1.23438l0.63281-0.24414L27,60.02563c0.00977-0.99609,0.83008-1.80664,1.82715-1.80664    c0.24512,0,0.4873,0.04883,0.71875,0.14551l1.06934,0.44531l0.28418-1.12207c0.30566-1.20117,1.38477-2.04004,2.62598-2.04004    c1.24414,0,2.32617,0.83887,2.63184,2.04004l0.28809,1.13672l1.07715-0.46484c0.21582-0.09375,0.45313-0.14063,0.70313-0.14063    c0.99805,0,1.81934,0.81152,1.83105,1.80859l0.00781,0.67676l0.63086,0.24414c0.5127,0.19824,0.84473,0.68359,0.84473,1.23438    c0,0.72656-0.59277,1.31738-1.37402,1.31738v2h22.12207V63.50024z"></path><rect x="8.14453" y="24.14478" width="2" height="5.76465"></rect><rect x="8.14453" y="31.32056" width="2" height="2.26953"></rect><rect x="4.21973" y="24.14478" width="2" height="5.76465"></rect><rect x="12.07031" y="24.14478" width="2" height="5.76465"></rect><rect x="52.92969" y="24.14478" width="2" height="5.76465"></rect></g><rect x="60.78027" y="24.14478" width="2" height="5.76465"></rect></g></svg>