<svg height='100px' width='100px'  fill="#485CC7" xmlns="http://www.w3.org/2000/svg" xmlns:xlink="http://www.w3.org/1999/xlink" version="1.1" x="0px" y="0px" viewBox="0 0 100 100" style="enable-background:new 0 0 100 100;" xml:space="preserve"><g><path d="M51.4,38.9c0-0.1,0-0.1,0-0.2c0-2.5,1.7-4.6,4-5.1l-0.6-4.8l-13.6,14L51.4,38.9z"></path><path d="M52.3,41.6l-10.7,4.1c0,0.5-0.1,1-0.2,1.5l6.9,3.7c0.9-0.9,2.2-1.5,3.6-1.6l1.6-6.4C53,42.6,52.6,42.1,52.3,41.6z"></path><path d="M31,45.6c0-0.1,0-0.2,0-0.3l-8-3.5l0.8,8.3l8,3l1.3-3.4C31.9,48.9,31,47.4,31,45.6z"></path><path d="M55.8,50.9l15.9-9.1l-9.8-1.8c-0.6,2.3-2.7,4.1-5.2,4.1c-0.2,0-0.4,0-0.5,0l-1.5,6.1C55.1,50.3,55.5,50.6,55.8,50.9z"></path><path d="M61.7,37l10.7,2l-5.9-6.9l-8.9-4.3l0.7,5.8C59.9,34.2,61.2,35.4,61.7,37z"></path><path d="M23.9,39.1l8.1,3.5c0.4-0.6,1-1.2,1.7-1.6l-2.2-9.6L23.9,39.1z"></path><path d="M57.2,53.4c0,0,0,0.1,0,0.1l18.4,1l1.4-2.3l-2-9.1L57.2,53.4z"></path><path d="M85.6,52.5V21c0-1.1-0.5-2.1-1.4-2.9c-0.8-0.7-1.7-1-2.7-1c-0.1,0-0.3,0-0.4,0c-1.5,0.2-3.2,0.3-4.7,0.3   c-14.3,0-23.6-8.9-23.7-9C52,7.7,51,7.3,50,7.3s-2,0.4-2.7,1.1c0,0.1-9.2,9-23.7,9c-1.5,0-3.2-0.1-4.7-0.3c-0.1,0-0.3,0-0.4,0   c-1,0-1.9,0.3-2.7,1c-0.9,0.8-1.4,1.7-1.4,2.9v31.5c-0.1,2.6-0.4,26,34.2,40c0.5,0.2,1,0.3,1.5,0.3s1-0.1,1.5-0.3   C86.1,78.4,85.8,55,85.6,52.5z M79.8,53.3l-6.6,10.5c-0.3,0.5-0.8,0.7-1.4,0.7l-10.1-1.3l-1.5,3.8l0.2,7.9c0,0.6-0.3,1.1-0.9,1.4   c-0.2,0.1-0.4,0.1-0.5,0.1c-0.4,0-0.8-0.2-1.1-0.5l-8.9-9.6H38.7c0,0,0,0,0,0c-0.1,0-0.2,0-0.3,0c0,0-0.1,0-0.1,0   c-0.1,0-0.1,0-0.2-0.1c0,0-0.1,0-0.1-0.1c-0.1,0-0.1-0.1-0.2-0.1c0,0-0.1-0.1-0.1-0.1c0,0-0.1-0.1-0.1-0.1c0,0,0,0,0-0.1   c0,0,0,0,0,0l-5.8-9.3L22,52.5c-0.5-0.2-0.9-0.7-0.9-1.2L20,39.8c0,0,0,0,0-0.1c0-0.1,0-0.1,0-0.2c0,0,0-0.1,0-0.1   c0-0.1,0-0.1,0-0.2c0,0,0-0.1,0-0.1c0,0,0,0,0-0.1c0,0,0-0.1,0.1-0.1c0,0,0-0.1,0.1-0.1c0-0.1,0.1-0.1,0.1-0.2c0,0,0,0,0,0l0,0   c0,0,0,0,0,0l10.8-11c0,0,0,0,0,0l0,0c0,0,0,0,0,0c0.1-0.1,0.2-0.1,0.2-0.2c0,0,0.1,0,0.1,0c0.1,0,0.2-0.1,0.3-0.1c0,0,0,0,0,0   l13.7-3.5c0.1,0,0.3,0,0.4,0l10,0.4c0,0,0.1,0,0.1,0c0.1,0,0.1,0,0.2,0c0,0,0.1,0,0.1,0c0.1,0,0.1,0,0.1,0.1c0,0,0,0,0,0L68,29.6   c0.2,0.1,0.3,0.2,0.5,0.4l8.6,10c0,0,0,0,0,0.1c0,0.1,0.1,0.1,0.1,0.2c0,0,0,0,0,0c0,0,0,0.1,0,0.1c0,0.1,0.1,0.1,0.1,0.2   c0,0,0,0,0,0.1L80,52.2C80.1,52.6,80,52.9,79.8,53.3z"></path><path d="M54.7,59.3l2.6,7.1c0-0.1,0-0.2,0.1-0.3l2-5.1c0.2-0.6,0.9-1,1.5-0.9l10.3,1.3l2.6-4.2l-16.8-0.9   C56.7,57.6,55.8,58.6,54.7,59.3z"></path><path d="M46.7,54.7c0-0.4,0.1-0.8,0.1-1.2l-7.1-3.8c-0.9,0.8-2.1,1.3-3.5,1.3c-0.2,0-0.3,0-0.5,0l-1.6,4l4.8,7.8l8-6.1   C46.9,56,46.7,55.4,46.7,54.7z"></path><path d="M48.9,58.9L43,63.3h6.7c0.4,0,0.8,0.2,1.1,0.5l4.3,4.7L51.9,60C50.8,59.9,49.7,59.5,48.9,58.9z"></path><path d="M39,41l13.8-14.3l-6.6-0.3L34,29.6l2.4,10.7C37.3,40.3,38.2,40.6,39,41z"></path></g></svg>