<svg height='100px' width='100px'  fill="rgb(255, 163, 0)" xmlns="http://www.w3.org/2000/svg" xmlns:xlink="http://www.w3.org/1999/xlink" version="1.1" x="0px" y="0px" viewBox="0 0 100 100" style="enable-background:new 0 0 100 100;" xml:space="preserve"><path d="M67.39,73.12c0-0.66-0.27-1.311-0.729-1.771c-0.94-0.93-2.61-0.93-3.54,0c-0.471,0.46-0.73,1.11-0.73,1.771  c0,0.649,0.26,1.3,0.73,1.76c0.47,0.47,1.109,0.74,1.77,0.74c0.65,0,1.3-0.271,1.771-0.74C67.12,74.42,67.39,73.77,67.39,73.12z"></path><path d="M77.569,48.49c-1.38-0.051-2.539,1.029-2.59,2.409c-0.04,1.381,1.04,2.54,2.41,2.591c0.03,0,0.061,0,0.09,0  c1.34,0,2.45-1.061,2.5-2.41C80.03,49.7,78.95,48.54,77.569,48.49z"></path><path d="M47.58,22.49c0,1.38,1.109,2.51,2.489,2.51c1.381,0,2.5-1.11,2.511-2.49c0-1.38-1.11-2.51-2.49-2.51  C48.7,20,47.58,21.109,47.58,22.49z"></path><path d="M77.1,44.67c1.33-0.39,2.09-1.771,1.7-3.101c-0.39-1.319-1.78-2.09-3.1-1.699c-1.33,0.39-2.091,1.779-1.7,3.1  c0.319,1.1,1.319,1.8,2.399,1.8C76.63,44.77,76.87,44.74,77.1,44.67z"></path><path d="M21.25,41.41c-0.4,1.319,0.359,2.71,1.68,3.109c0.24,0.07,0.48,0.101,0.72,0.101c1.07,0,2.07-0.7,2.391-1.78  c0.39-1.32-0.36-2.72-1.681-3.11C23.04,39.33,21.64,40.09,21.25,41.41z"></path><path d="M68.03,26.02H68.02c-1.1-0.83-2.67-0.609-3.5,0.49s-0.6,2.67,0.5,3.5c0.45,0.34,0.98,0.5,1.5,0.5c0.761,0,1.511-0.34,2-0.99  C69.35,28.41,69.13,26.85,68.03,26.02z"></path><path d="M56.38,23.13c-0.44,1.3,0.27,2.72,1.57,3.16c0.27,0.09,0.529,0.13,0.8,0.13c1.04,0,2.02-0.66,2.37-1.71  c0.439-1.3-0.271-2.72-1.58-3.16C58.229,21.109,56.819,21.819,56.38,23.13z"></path><path d="M29.52,35.649c0.8-1.13,0.521-2.68-0.609-3.479c-1.13-0.79-2.69-0.521-3.48,0.61c-0.79,1.13-0.52,2.689,0.61,3.489  c0.439,0.3,0.939,0.45,1.43,0.45C28.26,36.72,29.04,36.35,29.52,35.649z"></path><path d="M23.31,57.12c-1.29,0.47-1.96,1.91-1.479,3.199c0.37,1.021,1.33,1.65,2.34,1.65c0.29,0,0.58-0.05,0.87-0.16  c1.29-0.47,1.96-1.91,1.479-3.21C26.04,57.31,24.609,56.64,23.31,57.12z"></path><path d="M28.49,69.62c0.54,0,1.09-0.181,1.55-0.54c1.08-0.87,1.26-2.44,0.399-3.521c-0.859-1.08-2.43-1.25-3.51-0.39  s-1.26,2.43-0.399,3.51C27.02,69.3,27.75,69.62,28.49,69.62z"></path><path d="M41.399,26.37c0.261,0,0.521-0.04,0.78-0.12c1.311-0.44,2.021-1.851,1.59-3.16c-0.43-1.31-1.84-2.021-3.149-1.59  c-1.311,0.43-2.03,1.84-1.59,3.149C39.37,25.71,40.35,26.37,41.399,26.37z"></path><path d="M22.52,53.34c0.021,0,0.04,0,0.07,0c1.38-0.05,2.46-1.2,2.42-2.58s-1.19-2.46-2.57-2.42s-2.47,1.19-2.43,2.57  C20.05,52.27,21.17,53.34,22.52,53.34z"></path><path d="M74.899,61.95c0.29,0.109,0.58,0.159,0.87,0.159c1.021,0,1.971-0.619,2.34-1.63c0.49-1.29-0.17-2.729-1.46-3.21  c-1.3-0.489-2.729,0.17-3.22,1.46C72.95,60.03,73.6,61.47,74.899,61.95z"></path><path d="M69.47,65.67c-0.86,1.07-0.689,2.649,0.38,3.52c0.46,0.37,1.021,0.551,1.57,0.551c0.729,0,1.45-0.32,1.95-0.931  c0.859-1.08,0.689-2.649-0.38-3.52C71.92,64.43,70.34,64.6,69.47,65.67z"></path><path d="M74.67,32.92c-0.79-1.14-2.351-1.42-3.48-0.63c-1.14,0.79-1.42,2.35-0.63,3.479c0.48,0.7,1.26,1.07,2.05,1.07  c0.49,0,0.99-0.14,1.431-0.44C75.17,35.609,75.45,34.05,74.67,32.92z"></path><path d="M33.6,30.42c0.521,0,1.05-0.16,1.5-0.49c1.101-0.83,1.33-2.39,0.51-3.5c-0.829-1.11-2.39-1.34-3.5-0.51  c-1.109,0.82-1.34,2.39-0.51,3.5C32.09,30.069,32.84,30.42,33.6,30.42z"></path><path d="M33.3,71.319c-0.47,0.461-0.74,1.11-0.74,1.771c0,0.65,0.271,1.3,0.74,1.76c0.46,0.47,1.11,0.74,1.76,0.74  c0.66,0,1.3-0.271,1.771-0.74c0.47-0.46,0.729-1.109,0.729-1.76c0-0.66-0.26-1.31-0.729-1.771  C35.899,70.38,34.229,70.39,33.3,71.319z"></path><path d="M71.45,79.42c0-0.66-0.271-1.3-0.73-1.771c-0.939-0.93-2.61-0.93-3.54,0c-0.46,0.471-0.729,1.11-0.729,1.771  s0.27,1.31,0.729,1.77c0.47,0.46,1.11,0.73,1.771,0.73c0.649,0,1.3-0.271,1.77-0.73C71.18,80.729,71.45,80.08,71.45,79.42z"></path><path d="M23.37,31.37c0.79-1.13,0.52-2.69-0.61-3.48c-1.13-0.8-2.69-0.52-3.49,0.61c-0.79,1.13-0.51,2.689,0.62,3.479  c0.43,0.301,0.93,0.45,1.43,0.45C22.109,32.43,22.88,32.06,23.37,31.37z"></path><path d="M80.83,28.64c-0.79-1.13-2.351-1.41-3.48-0.63c-1.14,0.79-1.42,2.35-0.63,3.48c0.49,0.699,1.26,1.079,2.061,1.079  c0.489,0,0.979-0.149,1.42-0.449C81.33,31.33,81.609,29.78,80.83,28.64z"></path><path d="M19.49,61.21c-0.48-1.3-1.921-1.96-3.21-1.49c-1.301,0.48-1.961,1.92-1.49,3.21c0.37,1.01,1.33,1.64,2.35,1.64  c0.29,0,0.58-0.05,0.86-0.149c1.3-0.48,1.96-1.92,1.479-3.21C19.49,61.21,19.49,61.21,19.49,61.21z"></path><path d="M78.83,69.99c-1.07-0.86-2.65-0.69-3.511,0.38c-0.869,1.069-0.699,2.649,0.37,3.52c0.471,0.37,1.021,0.55,1.57,0.55  c0.73,0,1.46-0.319,1.95-0.93C80.08,72.43,79.91,70.859,78.83,69.99z"></path><path d="M50.09,12.5c-1.38,0-2.5,1.109-2.51,2.49c0,1.38,1.12,2.51,2.5,2.51s2.5-1.12,2.5-2.49C52.59,13.63,51.47,12.5,50.09,12.5z"></path><path d="M85.069,48.75c-1.38-0.04-2.539,1.04-2.59,2.42c-0.05,1.38,1.03,2.53,2.41,2.58c0.03,0,0.061,0,0.09,0  c1.34,0,2.45-1.061,2.5-2.41C87.52,49.96,86.45,48.8,85.069,48.75z"></path><path d="M15.74,42.399c0.239,0.07,0.479,0.101,0.71,0.101c1.08,0,2.069-0.7,2.399-1.79C19.24,39.39,18.49,38,17.16,37.6  c-1.32-0.39-2.71,0.36-3.11,1.69C13.66,40.609,14.41,42,15.74,42.399z"></path><path d="M81.2,40.859C81.52,41.95,82.52,42.66,83.6,42.66c0.23,0,0.47-0.03,0.7-0.101c1.32-0.39,2.08-1.779,1.7-3.1  c-0.391-1.33-1.78-2.09-3.101-1.7C81.569,38.14,80.81,39.53,81.2,40.859z"></path><path d="M24.59,70.25c-0.86-1.08-2.44-1.25-3.521-0.391c-1.069,0.86-1.25,2.431-0.39,3.511c0.5,0.62,1.22,0.939,1.96,0.939  c0.54,0,1.09-0.18,1.561-0.54C25.27,72.899,25.45,71.33,24.59,70.25z"></path><path d="M81.93,64.56c0.29,0.11,0.58,0.16,0.88,0.16c1.01,0,1.96-0.62,2.34-1.62c0.48-1.3-0.18-2.74-1.47-3.22  c-1.3-0.48-2.729,0.18-3.22,1.47C79.979,62.64,80.64,64.08,81.93,64.56z"></path><path d="M72.52,20.01c-1.1-0.83-2.67-0.61-3.5,0.5c-0.83,1.1-0.609,2.67,0.49,3.5c0.01,0,0.01,0,0.01,0c0.45,0.34,0.971,0.5,1.5,0.5  c0.75,0,1.5-0.34,2-1C73.84,22.41,73.62,20.84,72.52,20.01z"></path><path d="M39.04,19.25c0.26,0,0.52-0.04,0.779-0.12c1.311-0.44,2.03-1.85,1.591-3.16c-0.431-1.31-1.841-2.03-3.16-1.59h0.01  c-1.32,0.43-2.03,1.84-1.6,3.15C37.01,18.58,37.99,19.25,39.04,19.25z"></path><path d="M15.09,53.59c1.38-0.05,2.47-1.2,2.43-2.58c-0.05-1.38-1.2-2.46-2.58-2.42s-2.46,1.19-2.42,2.58  c0.04,1.35,1.15,2.42,2.49,2.42C15.04,53.59,15.069,53.59,15.09,53.59z"></path><path d="M58.75,16.01c-0.44,1.31,0.27,2.73,1.58,3.16c0.26,0.09,0.529,0.13,0.79,0.13c1.04,0,2.02-0.66,2.37-1.7  c0.439-1.31-0.271-2.729-1.58-3.17C60.6,13.99,59.189,14.7,58.75,16.01z"></path><path d="M31.12,20.42c-0.82-1.11-2.391-1.34-3.5-0.51c-1.101,0.819-1.34,2.39-0.511,3.489c0.49,0.66,1.25,1.011,2.011,1.011  c0.52,0,1.04-0.16,1.489-0.49C31.71,23.09,31.939,21.52,31.12,20.42z"></path><path d="M29.22,77.609c-0.46,0.471-0.729,1.11-0.729,1.771s0.27,1.3,0.729,1.77c0.47,0.46,1.11,0.73,1.771,0.73  c0.659,0,1.3-0.271,1.77-0.73c0.46-0.47,0.73-1.109,0.73-1.77s-0.271-1.3-0.73-1.771C31.83,76.68,30.149,76.68,29.22,77.609z"></path><path d="M71.24,83.96c-0.46,0.46-0.73,1.109-0.73,1.77c0,0.65,0.26,1.301,0.73,1.761c0.47,0.47,1.109,0.739,1.77,0.739  s1.3-0.27,1.771-0.739c0.46-0.46,0.729-1.11,0.729-1.761c0-0.67-0.27-1.31-0.729-1.77C73.85,83.03,72.17,83.03,71.24,83.96z"></path><path d="M17.22,27.069c0.79-1.13,0.521-2.689-0.61-3.479c-1.13-0.79-2.689-0.521-3.479,0.61c-0.8,1.13-0.521,2.689,0.61,3.489  c0.43,0.301,0.93,0.45,1.43,0.45C15.96,28.14,16.729,27.77,17.22,27.069z"></path><path d="M37.46,12c0.01,0,0.01,0,0.01,0c1.311-0.431,2.021-1.84,1.59-3.15c-0.43-1.319-1.85-2.03-3.16-1.6  c-1.31,0.439-2.02,1.85-1.59,3.16c0.351,1.05,1.32,1.72,2.37,1.72C36.939,12.13,37.2,12.09,37.46,12z"></path><path d="M50.1,5c-1.38,0-2.5,1.109-2.5,2.5c0,1.38,1.11,2.5,2.49,2.5c0,0,0,0,0.01,0c1.37,0,2.49-1.11,2.5-2.49  C52.6,6.13,51.479,5,50.1,5z"></path><path d="M24.64,18.399c0.521,0,1.04-0.17,1.49-0.5c1.1-0.819,1.33-2.39,0.51-3.5c-0.83-1.1-2.39-1.33-3.5-0.51  c-1.109,0.83-1.34,2.391-0.51,3.5C23.12,18.05,23.87,18.399,24.64,18.399z"></path><path d="M15.22,74.54c-1.08,0.859-1.26,2.43-0.4,3.51c0.5,0.62,1.221,0.94,1.961,0.94c0.539,0,1.09-0.181,1.56-0.551  c1.07-0.859,1.25-2.43,0.39-3.51C17.859,73.85,16.29,73.68,15.22,74.54z"></path><path d="M90.71,62.49c-1.29-0.48-2.73,0.18-3.22,1.47c-0.48,1.3,0.18,2.74,1.47,3.22c0.29,0.11,0.59,0.16,0.88,0.16  c1.01,0,1.96-0.62,2.34-1.63C92.66,64.42,92,62.979,90.71,62.49z"></path><path d="M84.68,74.689c-1.08-0.87-2.649-0.699-3.52,0.38c-0.87,1.07-0.7,2.65,0.38,3.511c0.46,0.38,1.02,0.56,1.569,0.56  c0.73,0,1.45-0.32,1.95-0.93C85.92,77.13,85.75,75.56,84.68,74.689z"></path><path d="M84.939,28.29c0.49,0,0.99-0.141,1.42-0.44c1.131-0.79,1.421-2.35,0.631-3.479c-0.79-1.141-2.351-1.42-3.48-0.63  c-1.14,0.779-1.42,2.34-0.63,3.479C83.37,27.92,84.149,28.29,84.939,28.29z"></path><path d="M92.56,49.02c-1.38-0.05-2.54,1.03-2.58,2.41c-0.05,1.38,1.03,2.54,2.41,2.59c0.021,0,0.05,0,0.08,0  c1.34,0,2.46-1.06,2.5-2.41C95.02,50.229,93.939,49.069,92.56,49.02z"></path><path d="M9.97,35.46c-1.32-0.391-2.71,0.359-3.11,1.689c-0.39,1.32,0.36,2.71,1.69,3.11c0.23,0.07,0.47,0.1,0.71,0.1  c1.08,0,2.07-0.699,2.39-1.79c0.011,0,0.011,0,0.011,0C12.05,37.25,11.29,35.859,9.97,35.46z"></path><path d="M64.29,7.319c-1.311-0.439-2.73,0.271-3.16,1.58c-0.44,1.301,0.27,2.721,1.57,3.16c0.27,0.09,0.529,0.13,0.8,0.13  c1.04,0,2.02-0.659,2.37-1.71C66.31,9.17,65.6,7.76,64.29,7.319z"></path><path d="M90.79,40.54c0.24,0,0.47-0.03,0.71-0.101c1.319-0.39,2.08-1.77,1.7-3.1c-0.391-1.32-1.78-2.08-3.11-1.7  c-1.32,0.391-2.08,1.78-1.69,3.11C88.72,39.84,89.71,40.54,90.79,40.54z"></path><path d="M77.51,17.51c0.83-1.1,0.61-2.67-0.49-3.5c-1.1-0.83-2.67-0.61-3.5,0.5c-0.83,1.1-0.609,2.67,0.49,3.5  c0.45,0.33,0.98,0.5,1.51,0.5C76.27,18.51,77.02,18.16,77.51,17.51z"></path><path d="M12.45,63.8c-0.48-1.3-1.92-1.96-3.21-1.48c-1.301,0.471-1.96,1.91-1.49,3.211c0.38,1.01,1.33,1.63,2.35,1.63  c0.29,0,0.58-0.051,0.86-0.15c1.3-0.479,1.96-1.91,1.479-3.21C12.45,63.8,12.45,63.8,12.45,63.8z"></path><polygon points="5.02,51.41 5.02,51.403 5.02,51.399 "></polygon><path d="M10.02,51.25c-0.04-1.38-1.2-2.46-2.58-2.42c-1.378,0.04-2.456,1.186-2.419,2.573c0.042,1.359,1.151,2.427,2.5,2.427  c0.021,0,0.05,0,0.08,0C8.979,53.78,10.06,52.63,10.02,51.25z"></path><path d="M25.149,83.91c-0.46,0.46-0.729,1.109-0.729,1.77c0,0.65,0.26,1.3,0.729,1.76c0.471,0.471,1.11,0.74,1.771,0.74  s1.3-0.27,1.76-0.74c0.47-0.46,0.74-1.1,0.74-1.76s-0.271-1.31-0.73-1.77C27.76,82.979,26.08,82.979,25.149,83.91z"></path><path d="M72.5,50c0-12.813-10.79-23.166-23.727-22.467C36.969,28.161,27.426,38.306,27.5,50.146  c0.049,7.595,3.893,14.599,10.282,18.737C39.171,69.782,40,71.332,40,73.029V85c0,5.514,4.486,10,10,10s10-4.486,10-10V73.03  c0-1.701,0.814-3.243,2.179-4.122C68.642,64.741,72.5,57.673,72.5,50z M55,75H45v-1.971c0-3.4-1.683-6.52-4.5-8.344  c-4.972-3.22-7.962-8.667-8-14.571c-0.058-9.21,7.361-17.1,16.539-17.589C49.361,32.509,49.681,32.5,50,32.5  c9.649,0,17.5,7.851,17.5,17.5c0,5.967-3.002,11.464-8.03,14.706C56.671,66.51,55,69.622,55,73.03V75z M50,90c-2.757,0-5-2.243-5-5  v-5h10v5C55,87.757,52.757,90,50,90z"></path></svg>