<svg height='100px' width='100px'  fill="rgb(0, 175, 215)" xmlns="http://www.w3.org/2000/svg" xmlns:xlink="http://www.w3.org/1999/xlink" version="1.1" x="0px" y="0px" viewBox="0 0 100 100" style="enable-background:new 0 0 100 100;" xml:space="preserve"><g><g><g><path d="M57,39.6c0.6,0.6,1.1,1.2,1.5,1.8c1.3,1.7,2.3,3.6,2.9,5.7l-4.1,4.1c-0.9,0.9-2.3,0.9-3.2,0c-0.2-0.2-0.4-0.4-0.5-0.7     c-0.1-0.3-0.1-0.7-0.2-1c-0.4-1.5-1.3-2.9-2.4-4c-0.4-0.4-0.9-0.8-1.4-1.2c-3.7-2.5-8.7-2-11.8,1.2L20.3,63.1     c-3.6,3.6-3.6,9.6,0,13.2c3.6,3.6,9.6,3.6,13.2,0l7.1-7.1c2.3,1.8,5,3.2,7.8,4l-9,9c-6.9,6.9-18.1,6.9-25,0     c-6.9-6.9-6.9-18.1,0-25L32,39.6c1.9-1.9,4.1-3.3,6.7-4.2c2.1-0.7,4.3-1.1,6.6-1c3.9,0.2,7.6,1.6,10.6,4     C56.2,38.9,56.6,39.2,57,39.6z"></path></g><g><path d="M85.6,19.7c6.9,6.9,6.9,18.1,0,25L68.2,62.1c-1.9,1.9-4.1,3.3-6.7,4.2c-2.1,0.7-4.3,1.1-6.6,1c-3.9-0.2-7.6-1.6-10.6-4     c-0.4-0.3-0.8-0.7-1.2-1.1c-0.6-0.6-1.1-1.2-1.5-1.8c-1.3-1.7-2.3-3.6-2.9-5.7l4.1-4.1c0.9-0.9,2.3-0.9,3.2,0     c0.2,0.2,0.4,0.5,0.5,0.8c0.1,0.2,0.1,0.4,0.1,0.6l0.2,0.7c0.5,1.4,1.2,2.6,2.2,3.6c0.4,0.4,0.9,0.8,1.4,1.2     c3.7,2.5,8.7,2,11.8-1.2l17.4-17.4c3.6-3.6,3.6-9.6,0-13.2c-3.6-3.6-9.6-3.6-13.2,0l-6.9,6.9c-2.3-1.8-5-3.2-7.8-4l8.7-8.7     C67.5,12.8,78.7,12.8,85.6,19.7z"></path></g></g></g></svg>