<svg xmlns="http://www.w3.org/2000/svg" viewBox="0 0 623.68 701.34"><defs><style>.cls-1{fill:#f2a63b;}.cls-2{fill:#fafbfc;}.cls-3,.cls-9{fill:#4c4f54;}.cls-10,.cls-12,.cls-13,.cls-3,.cls-4,.cls-5,.cls-7{isolation:isolate;}.cls-4{fill:none;stroke:#4eac6d;stroke-miterlimit:10;stroke-width:27px;}.cls-12,.cls-6{fill:#fff;}.cls-7,.cls-8{fill:#ed7333;}.cls-10,.cls-11{fill:#afb2b8;}.cls-13{fill:#556080;}</style></defs><g id="Layer_2" data-name="Layer 2"><g id="Layer_1-2" data-name="Layer 1"><rect class="cls-1" x="288.84" y="482.49" width="52.69" height="82.93"/><rect class="cls-2" x="222.64" y="473.45" width="27.74" height="166.95"/><rect class="cls-2" x="374.75" y="473.45" width="27.74" height="166.95"/><circle class="cls-2" cx="222.36" cy="582.56" r="54.13"/><circle class="cls-2" cx="301.66" cy="565.45" r="25.13"/><circle class="cls-2" cx="166.07" cy="569.42" r="24.6"/><circle class="cls-2" cx="135.74" cy="552.51" r="24.08"/><circle class="cls-2" cx="107.07" cy="569.42" r="21.17"/><circle class="cls-2" cx="309.96" cy="628.36" r="43.47"/><circle class="cls-2" cx="361.45" cy="597.05" r="56.72"/><circle class="cls-2" cx="418.17" cy="609.23" r="56.72"/><circle class="cls-2" cx="143.61" cy="603.49" r="36.54"/><circle class="cls-2" cx="255.56" cy="622.18" r="56.72"/><circle class="cls-2" cx="260.63" cy="603.49" r="56.72"/><circle class="cls-2" cx="392.97" cy="556.92" r="35.05"/><circle class="cls-2" cx="475.57" cy="589.11" r="39.26"/><circle class="cls-2" cx="518.91" cy="576.59" r="24.76"/><circle class="cls-2" cx="357.92" cy="633.31" r="56.72"/><circle class="cls-2" cx="300.78" cy="633.31" r="56.72"/><circle class="cls-2" cx="198.83" cy="609.23" r="56.72"/><rect class="cls-3" x="282.71" y="471.94" width="61.65" height="14.55"/><circle class="cls-4" cx="311.84" cy="389.49" r="298.34"/><g class="cls-5"><ellipse class="cls-6" cx="388.56" cy="110.76" rx="18.83" ry="42.61"/><rect class="cls-6" x="369.85" y="115.51" width="37.53" height="336.74"/></g><rect class="cls-6" x="364.45" y="433.87" width="46.9" height="31.05" rx="4.95"/><rect class="cls-3" x="364.45" y="456.38" width="46.9" height="17.07"/><g class="cls-5"><ellipse class="cls-6" cx="236.73" cy="110.76" rx="18.83" ry="42.61"/><rect class="cls-6" x="218.03" y="115.51" width="37.53" height="336.74"/></g><rect class="cls-6" x="212.62" y="433.87" width="46.9" height="31.05" rx="4.95"/><rect class="cls-3" x="212.62" y="456.38" width="46.9" height="17.07"/><ellipse class="cls-7" cx="312.4" cy="77.96" rx="49.05" ry="77.96"/><rect class="cls-8" x="264.64" y="77.96" width="96.81" height="321.13"/><g class="cls-5"><polygon class="cls-3" points="343.54 280.75 366.15 320.63 444.73 384.33 444.73 423.62 343.54 423.62 343.54 280.75"/><rect class="cls-9" x="349.49" y="380.24" width="101.2" height="44.57" rx="12" transform="translate(800.17 805.05) rotate(-180)"/></g><polygon class="cls-10" points="344.47 295.81 363.47 329.31 429.47 382.81 429.47 415.81 344.47 415.81 344.47 295.81"/><rect class="cls-11" x="350.47" y="380.38" width="85" height="37.43" rx="12" transform="translate(785.93 798.19) rotate(-180)"/><g class="cls-5"><polygon class="cls-3" points="283.47 281.94 260.85 321.82 182.27 385.52 182.27 424.81 283.47 424.81 283.47 281.94"/><rect class="cls-9" x="176.32" y="381.43" width="101.2" height="44.57" rx="12"/></g><polygon class="cls-10" points="282.54 297 263.54 330.5 197.53 384 197.53 417 282.54 417 282.54 297"/><rect class="cls-11" x="191.53" y="381.57" width="85" height="37.43" rx="12"/><ellipse class="cls-3" cx="313.53" cy="160" rx="31" ry="51"/><rect class="cls-6" x="282.53" y="171.5" width="62" height="279"/><ellipse class="cls-6" cx="313.53" cy="180.5" rx="31" ry="51"/><path class="cls-12" d="M281,406.5s-10,8-12,15,0,41,0,41,.12,2,5.56,9,38.94,4,38.94,4v-69Z"/><path class="cls-12" d="M345.9,406.5s10,8,12,15,0,41,0,41-.12,2-5.56,9-38.94,4-38.94,4v-69Z"/><rect class="cls-3" x="290.5" y="155.38" width="20.57" height="9.25" rx="4.62" transform="translate(-36.58 112.52) rotate(-20)"/><rect class="cls-3" x="317.98" y="155.38" width="20.57" height="9.25" rx="4.62" transform="translate(74.52 -102.62) rotate(20)"/><rect class="cls-10" x="308.78" y="415.81" width="4.61" height="71.13"/><rect class="cls-13" x="313.53" y="415.81" width="4.61" height="71.13"/></g></g></svg>